<?xml version="1.0" encoding="utf-8"?>
<!-- Generator: Adobe Illustrator 25.0.0, SVG Export Plug-In . SVG Version: 6.00 Build 0)  -->
<svg version="1.1" id="Layer_1" xmlns="http://www.w3.org/2000/svg" xmlns:xlink="http://www.w3.org/1999/xlink" x="0px" y="0px"
	 viewBox="0 0 200 200" style="enable-background:new 0 0 200 200;" xml:space="preserve">

<g id="card1SVG">
	<path pathlength="101" class="lineCard1Text" d="M48.96,52.02l-1.5,2.03v7.5h-8.19V34.5h8.19v10.14l7.09-10.14h10.01L54.36,47.07l10.66,14.47h-9.97
		L48.96,52.02z"/>
	<path pathlength="101" class="lineCard1Text" d="M64.17,51.73c0-5.47,4.05-10.26,10.99-10.26c6.97,0,11.03,4.78,11.03,10.26c0,5.47-4.05,10.3-11.03,10.3
		C68.23,62.03,64.17,57.21,64.17,51.73z M78.69,51.73c0-2.15-1.26-3.81-3.53-3.81c-2.23,0-3.49,1.66-3.49,3.81
		c0,2.19,1.26,3.85,3.49,3.85C77.43,55.59,78.69,53.92,78.69,51.73z"/>
	<path pathlength="101" class="lineCard1Text" d="M88.91,69.01V41.96h7.3v2.07c1.58-1.86,3.49-2.55,5.51-2.55c4.87,0,8.59,3.57,8.59,10.26
		c0,6.73-3.73,10.3-8.59,10.3c-2.03,0-3.89-0.69-5.51-2.55v9.53H88.91z M99.2,47.92c-0.93,0-2.31,0.49-3,1.34v4.99
		c0.65,0.81,2.07,1.34,3,1.34c1.95,0,3.65-1.38,3.65-3.85C102.85,49.3,101.15,47.92,99.2,47.92z"/>
	<path pathlength="101" class="lineCard1Text" d="M122.36,41.48c5.76,0,10.18,4.14,10.18,11.03V54h-13.3c0.41,1.26,1.82,2.47,4.3,2.47
		c1.66,0,3.45-0.61,4.42-1.38l3,4.5c-1.95,1.66-5.43,2.43-8.35,2.43c-6.12,0-10.91-3.85-10.91-10.3
		C111.7,46.06,116.03,41.48,122.36,41.48z M119.15,49.38h6.45c-0.2-0.85-0.89-2.35-3.24-2.35C120.13,47.03,119.4,48.49,119.15,49.38
		z"/>
	<path pathlength="101" class="lineCard1Text" d="M148.31,50.72c0-2.03-1.09-2.8-2.84-2.8c-1.66,0-2.51,0.85-3.12,1.54v12.08h-7.3V41.96h7.3v2.23
		c1.13-1.3,3.28-2.72,6.73-2.72c4.54,0,6.53,2.76,6.53,6.16v13.91h-7.3V50.72z"/>
	<path pathlength="101" class="lineCard1Text" d="M52.41,99.3c0-2.03-1.09-2.72-2.84-2.72c-1.66,0-2.51,0.85-3.12,1.54v12.08h-7.3V83.16h7.3v9.69
		c1.14-1.3,3.28-2.72,6.73-2.72c4.54,0,6.53,2.68,6.53,6.08v13.99h-7.3V99.3z"/>
	<path pathlength="101" class="lineCard1Text" d="M75.08,108.34c-1.09,1.38-3.49,2.35-5.92,2.35c-2.92,0-6.73-1.99-6.73-6.45c0-4.86,3.81-6.04,6.73-6.04
		c2.55,0,4.86,0.81,5.92,2.15v-2.23c0-1.38-1.26-2.43-3.65-2.43c-1.82,0-3.89,0.73-5.43,1.91l-2.47-4.5
		c2.64-2.11,6.28-2.96,9.24-2.96c4.86,0,9.61,1.7,9.61,8.23v11.84h-7.3V108.34z M75.08,103.8c-0.49-0.69-1.74-1.05-2.88-1.05
		c-1.22,0-2.55,0.41-2.55,1.62s1.34,1.58,2.55,1.58c1.14,0,2.39-0.37,2.88-1.05V103.8z"/>
	<path pathlength="101" class="lineCard1Text" d="M88.82,110.04c1.5,1.5,3.73,2.15,5.84,2.15c1.7,0,4.54-0.65,4.54-4.09v-1.05c-1.66,1.91-3.49,2.64-5.51,2.64
		c-4.7,0-8.59-3.08-8.59-9.77c0-6.53,3.77-9.77,8.59-9.77c2.03,0,3.93,0.69,5.51,2.55v-2.07h7.3v17.47
		c0,8.47-6.97,10.05-11.84,10.05c-3.37,0-6.37-0.89-8.92-2.92L88.82,110.04z M99.2,97.84c-0.69-0.81-2.07-1.26-3-1.26
		c-1.99,0-3.65,0.93-3.65,3.32c0,2.39,1.66,3.32,3.65,3.32c0.93,0,2.31-0.45,3-1.26V97.84z"/>
	<path pathlength="101" class="lineCard1Text" d="M119.88,90.14c5.76,0,10.18,4.14,10.18,11.03v1.5h-13.3c0.41,1.26,1.82,2.47,4.3,2.47
		c1.66,0,3.45-0.61,4.42-1.38l3,4.5c-1.95,1.66-5.43,2.43-8.35,2.43c-6.12,0-10.91-3.85-10.91-10.3
		C109.22,94.72,113.56,90.14,119.88,90.14z M116.68,98.04h6.45c-0.2-0.85-0.89-2.35-3.24-2.35
		C117.65,95.69,116.92,97.15,116.68,98.04z"/>
	<path pathlength="101" class="lineCard1Text" d="M145.83,99.38c0-2.03-1.09-2.8-2.84-2.8c-1.66,0-2.51,0.85-3.12,1.54v12.08h-7.3V90.62h7.3v2.23
		c1.13-1.3,3.28-2.72,6.73-2.72c4.54,0,6.53,2.76,6.53,6.16v13.91h-7.3V99.38z"/>
	<path pathlength="101" class="lineCard1Text" d="M104.84,150.67c2.35,0,4.34,1.99,4.34,4.34s-1.99,4.34-4.34,4.34c-2.35,0-4.34-1.99-4.34-4.34
		S102.49,150.67,104.84,150.67z"/>
	<path pathlength="101" class="lineCard1Text" d="M125.44,156.79c-1.66,1.86-3.53,2.55-5.51,2.55c-4.74,0-8.64-3.57-8.64-10.3c0-6.49,3.81-10.26,8.64-10.26
		c1.99,0,3.97,0.69,5.51,2.55v-9.53h7.3v27.04h-7.3V156.79z M125.44,146.54c-0.69-0.85-2.07-1.3-3.04-1.3
		c-1.99,0-3.65,1.38-3.65,3.81s1.66,3.85,3.65,3.85c0.97,0,2.35-0.49,3.04-1.34V146.54z"/>
	<path pathlength="101" class="lineCard1Text" d="M145.51,152.54l-1.42,1.91v4.42h-7.3v-27.04h7.3v14.43l4.5-6.97h8.8l-6.73,8.92l7.18,10.66h-8.96
		L145.51,152.54z"/>
</g>
</svg>
