<?xml version="1.0" encoding="utf-8"?>
<!-- Generator: Adobe Illustrator 24.3.0, SVG Export Plug-In . SVG Version: 6.00 Build 0)  -->
<svg version="1.1" id="triangles" xmlns="http://www.w3.org/2000/svg" xmlns:xlink="http://www.w3.org/1999/xlink" x="0px" y="0px"
	 viewBox="0 0 1920 1080" style="enable-background:new 0 0 1920 1080;" xml:space="preserve">
<style type="text/css">
	<!-- .st0{fill:#FFFFFF;} -->
</style>
<g class="triangleGroup1">
	<polygon class="st0" points="576.6,870.24 740.82,585.8 905.04,870.24 	"/>
	<path d="M740.82,588.8l161.63,279.94H579.2L740.82,588.8 M740.82,582.8L574,871.74h333.64L740.82,582.8L740.82,582.8z"/>
</g>
<g class="triangleGroup1">
	<polygon class="st0" points="766.22,575.89 1094.67,575.89 930.44,860.33 	"/>
	<path d="M1092.07,577.39L930.44,857.33L768.82,577.39H1092.07 M1097.26,574.39H763.62l166.82,288.94L1097.26,574.39L1097.26,574.39
		z"/>
</g>
<g class="triangleGroup1">
	<polygon class="st0" points="954.55,870.24 1118.77,585.8 1282.99,870.24 	"/>
	<path d="M1118.77,588.8l161.63,279.94H957.15L1118.77,588.8 M1118.77,582.8L951.95,871.74h333.64L1118.77,582.8L1118.77,582.8z"/>
</g>
<g class="triangleGroup1">
	<polygon class="st0" points="1143.22,573.89 1471.67,573.89 1307.44,858.33 	"/>
	<path d="M1469.07,575.39l-161.63,279.94l-161.63-279.94H1469.07 M1474.26,572.39h-333.64l166.82,288.94L1474.26,572.39
		L1474.26,572.39z"/>
</g>
<g class="triangleGroup2">
	<polygon class="st0" points="1333.55,868.24 1497.77,583.8 1661.99,868.24 	"/>
	<path d="M1497.77,586.8l161.63,279.94h-323.25L1497.77,586.8 M1497.77,580.8l-166.82,288.94h333.64L1497.77,580.8L1497.77,580.8z"
		/>
</g>
<g class="triangleGroup2">
	<polygon class="st0" points="956.22,254.89 1284.67,254.89 1120.44,539.33 	"/>
	<path d="M1282.07,256.39l-161.63,279.94L958.82,256.39H1282.07 M1287.26,253.39H953.62l166.82,288.94L1287.26,253.39
		L1287.26,253.39z"/>
</g>
<g class="triangleGroup2">
	<polygon class="st0" points="1145.55,549.24 1309.77,264.8 1473.99,549.24 	"/>
	<path d="M1309.77,267.8l161.63,279.94h-323.25L1309.77,267.8 M1309.77,261.8l-166.82,288.94h333.64L1309.77,261.8L1309.77,261.8z"
		/>
</g>
<g class="triangleGroup2">
	<polygon class="st0" points="766.22,553.65 930.44,269.2 1094.67,553.65 	"/>
	<path d="M930.44,272.2l161.63,279.94H768.82L930.44,272.2 M930.44,266.2L763.62,555.15h333.64L930.44,266.2L930.44,266.2z"/>
</g>
<g class="triangleGroup3">
	<polygon class="st0" points="185.6,867.24 349.82,582.8 514.04,867.24 	"/>
	<path d="M349.82,585.8l161.63,279.94H188.2L349.82,585.8 M349.82,579.8L183,868.74h333.64L349.82,579.8L349.82,579.8z"/>
</g>
<g class="triangleGroup3">
	<polygon class="st0" points="382.22,572.89 710.67,572.89 546.44,857.33 	"/>
	<path d="M708.07,574.39L546.44,854.33L384.82,574.39H708.07 M713.26,571.39H379.62l166.82,288.94L713.26,571.39L713.26,571.39z"/>
</g>
<g class="triangleGroup3">
	<polygon class="st0" points="578.22,251.89 906.67,251.89 742.44,536.33 	"/>
	<path d="M904.07,253.39L742.44,533.33L580.82,253.39H904.07 M909.26,250.39H575.62l166.82,288.94L909.26,250.39L909.26,250.39z"/>
</g>
<g class="triangleGroup3">
	<polygon class="st0" points="382.22,550.65 546.44,266.2 710.67,550.65 	"/>
	<path d="M546.44,269.2l161.63,279.94H384.82L546.44,269.2 M546.44,263.2L379.62,552.15h333.64L546.44,263.2L546.44,263.2z"/>
</g>
</svg>
